<?xml version="1.0" standalone="no"?>
<!DOCTYPE svg PUBLIC "-//W3C//DTD SVG 20010904//EN"
 "http://www.w3.org/TR/2001/REC-SVG-20010904/DTD/svg10.dtd">
<svg version="1.0" xmlns="http://www.w3.org/2000/svg"
 width="261.000000pt" height="261.000000pt" viewBox="0 0 261.000000 261.000000"
 preserveAspectRatio="xMidYMid meet">
<metadata>
Created by potrace 1.14, written by Peter Selinger 2001-2017
</metadata>
<g transform="translate(0.000000,261.000000) scale(0.100000,-0.100000)"
fill="#000000" stroke="none">
<path d="M1965 2188 c-82 -72 -175 -152 -205 -178 -30 -26 -95 -82 -145 -124
-49 -43 -103 -90 -120 -105 -16 -14 -60 -52 -97 -84 l-67 -58 -415 330 c-229
182 -422 331 -430 331 -42 0 -271 -114 -396 -198 l-85 -57 -3 -713 c-2 -622 0
-716 13 -742 37 -71 345 -350 387 -350 7 0 88 60 179 133 274 218 750 592 758
595 4 1 17 -6 28 -15 11 -10 47 -40 79 -68 63 -54 297 -258 354 -309 19 -17
105 -92 190 -166 85 -74 157 -137 160 -140 3 -3 17 -16 32 -29 l26 -23 49 33
c88 60 188 146 271 234 l82 86 0 749 0 748 -77 50 c-92 58 -233 130 -338 172
-42 17 -77 30 -78 30 -1 -1 -69 -60 -152 -132z m-1322 -650 c133 -106 244
-195 247 -198 3 -3 15 -13 28 -22 22 -15 19 -17 -149 -149 -94 -74 -176 -139
-183 -144 -6 -6 -38 -32 -71 -57 -33 -26 -75 -59 -92 -73 l-33 -26 0 430 c0
237 3 431 6 431 3 0 114 -86 247 -192z m1577 -223 c0 -228 -3 -415 -7 -415 -5
0 -21 13 -38 28 -16 15 -118 104 -225 197 -107 93 -198 174 -203 180 -7 10 2
20 108 111 33 28 80 69 105 90 25 22 58 50 74 64 16 14 63 55 105 92 42 37 77
67 79 68 1 0 2 -187 2 -415z"/>
</g>
</svg>
